<svg xmlns="http://www.w3.org/2000/svg" width="1880" height="149" fill="none"><path fill="#010000" d="M.21 148.75c-.14 0-.21-.07-.21-.21V.21C0 .07.07 0 .21 0h111.77c25.93 0 36.34 11.05 36.34 31.87v13.81c0 21.46-13.17 27.62-36.13 27.62v.64c24.01 0 36.55 4.89 36.55 27.41v14.24c0 22.31-8.29 33.15-33.79 33.15H.21v.01Zm49.09-96.9h49.94c.14 0 .21-.07.21-.21v-6.59c0-.14-.07-.21-.21-.21H49.3v7.01Zm0 51.85h49.94c.14 0 .21-.07.21-.21V96.9c0-.14-.07-.21-.21-.21H49.3v7.01ZM188.91 148.75c-24.65 0-33.36-10.84-33.36-33.57V.22c0-.14.07-.21.21-.21h48.88c.14 0 .21.07.21.21v103.06c0 .14.07.21.21.21h48.03c.14 0 .21-.07.21-.21V.22c0-.14.07-.21.21-.21h48.87c.14 0 .21.07.21.21v114.96c0 22.74-8.5 33.57-33.36 33.57h-80.32ZM309.62 148.75c-.14 0-.21-.07-.21-.21V.21c0-.14.07-.21.21-.21h125.8c24.65 0 33.36 10.84 33.36 32.3v15.3c0 18.27-10.84 26.78-36.76 26.78v.64c25.93 0 36.76 7.44 36.76 26.78v46.75c0 .14-.07.21-.21.21h-48.88c-.14 0-.21-.07-.21-.21v-52.7c0-.14-.07-.21-.21-.21h-60.56v52.91c0 .14-.07.21-.21.21h-48.88v-.01Zm49.08-96.9h60.56c.14 0 .21-.07.21-.21v-6.59c0-.14-.07-.21-.21-.21H358.7v7.01ZM475.79 148.75c-.14 0-.21-.07-.21-.21V.21c0-.14.07-.21.21-.21h134.73c.14 0 .21.07.21.21v44.84c0 .14-.07.21-.21.21h-85.64v6.37h85.42c.14 0 .21.07.21.21v44.84c0 .14-.07.21-.21.21h-85.42v6.38h86.27c.14 0 .21.07.21.21v45.05c0 .14-.07.21-.21.21H475.79v.01ZM799.22 148.75h-56.31l-6.59-19.34h-58.86l-6.59 19.34h-55.04L674.05 0h66.09l59.07 148.75h.01ZM692.33 85.64h29.11L707.41 44.2h-.85l-14.24 41.44h.01ZM830.88 148.75c-24.65 0-33.36-10.84-33.36-33.57V.22c0-.14.07-.21.21-.21h48.88c.14 0 .21.07.21.21v103.06c0 .14.07.21.21.21h48.03c.14 0 .21-.07.21-.21V.22c0-.14.07-.21.21-.21h48.87c.14 0 .21.07.21.21v114.96c0 22.74-8.5 33.57-33.36 33.57h-80.32ZM951.59 148.75c-.14 0-.21-.07-.21-.21V.21c0-.14.07-.21.21-.21h103.91c31.66 0 45.26 15.09 45.26 43.99v60.78c0 27.62-13.39 43.99-44.62 43.99H951.59v-.01Zm49.08-45.26h50.57c.14 0 .21-.07.21-.21v-57.8c0-.14-.07-.21-.21-.21h-50.57v58.22ZM1140.92 148.75c-24.65 0-33.36-10.84-33.36-33.57V.22c0-.14.07-.21.21-.21h48.88c.14 0 .21.07.21.21v103.06c0 .14.07.21.21.21h48.03c.14 0 .21-.07.21-.21V.22c0-.14.07-.21.21-.21h48.87c.14 0 .21.07.21.21v114.96c0 22.74-8.5 33.57-33.36 33.57h-80.32ZM1261.62 148.75c-.14 0-.21-.07-.21-.21V.21c0-.14.07-.21.21-.21h114.96c25.08 0 33.79 11.26 33.79 34.21v29.11c0 22.95-10.41 33.57-35.28 33.57h-64.39v51.64c0 .14-.07.21-.21.21h-48.88l.01.01Zm49.09-96.68h51c.14 0 .21-.07.21-.21v-6.59c0-.14-.07-.21-.21-.21h-51v7.01ZM1417.39 148.75c-.14 0-.21-.07-.21-.21V.21c0-.14.07-.21.21-.21h48.88c.14 0 .21.07.21.21v103.28h77.14c.14 0 .21.07.21.21v44.84c0 .14-.07.21-.21.21h-126.23ZM1550.84 148.75c-.14 0-.21-.07-.21-.21V.21c0-.14.07-.21.21-.21h134.73c.14 0 .21.07.21.21v44.84c0 .14-.07.21-.21.21h-85.64v6.37h85.42c.14 0 .21.07.21.21v44.84c0 .14-.07.21-.21.21h-85.42v6.38h86.27c.14 0 .21.07.21.21v45.05c0 .14-.07.21-.21.21h-135.36v.01ZM1691.72 148.75h-.42l60.77-75.23L1690.87 0h64.39l29.54 38.67L1813.06 0h62.69l-57.59 73.31 61.84 75.44h-66.51l-28.69-39.52-28.69 39.52h-64.39Z"/></svg>